<svg xmlns="http://www.w3.org/2000/svg" xmlns:xlink="http://www.w3.org/1999/xlink" version="1.1" width="256" height="256" viewBox="0 0 256 256" xml:space="preserve">
<desc>Created with Fabric.js 1.7.22</desc>
<defs>
</defs>
<g transform="translate(128 128) scale(0.72 0.72)" style="">
	<g style="stroke: none; stroke-width: 0; stroke-dasharray: none; stroke-linecap: butt; stroke-linejoin: miter; stroke-miterlimit: 10; fill: none; fill-rule: nonzero; opacity: 1;" transform="translate(-175.05 -175.05000000000004) scale(3.89 3.89)" >
	<path d="M 35.69 90 c -0.112 0 -0.225 -0.019 -0.335 -0.058 c -0.435 -0.154 -0.707 -0.587 -0.66 -1.046 l 3.829 -36.944 l -19.177 3.695 c -0.395 0.073 -0.796 -0.092 -1.02 -0.426 c -0.224 -0.333 -0.226 -0.769 -0.006 -1.104 L 53.473 0.452 c 0.254 -0.387 0.737 -0.548 1.172 -0.395 c 0.435 0.155 0.707 0.586 0.66 1.045 l -3.829 36.944 l 19.176 -3.695 c 0.396 -0.078 0.796 0.091 1.021 0.425 c 0.224 0.333 0.226 0.769 0.006 1.104 L 36.526 89.548 C 36.337 89.836 36.019 90 35.69 90 z M 39.657 49.716 c 0.248 0 0.49 0.092 0.676 0.263 c 0.233 0.214 0.352 0.525 0.319 0.841 l -3.543 34.189 L 68.71 36.764 l -18.178 3.502 c -0.315 0.062 -0.632 -0.031 -0.865 -0.245 c -0.233 -0.214 -0.352 -0.525 -0.319 -0.84 l 3.544 -34.19 L 21.289 53.236 l 18.179 -3.503 C 39.531 49.722 39.594 49.716 39.657 49.716 z" style="stroke: none; stroke-width: 1; stroke-dasharray: none; stroke-linecap: butt; stroke-linejoin: miter; stroke-miterlimit: 10; fill: rgb(0,0,0); fill-rule: nonzero; opacity: 1;" transform=" matrix(1 0 0 1 0 0) " stroke-linecap="round" />
</g>
</g>
</svg>